<?xml version="1.0" standalone="no"?>
<!DOCTYPE svg PUBLIC "-//W3C//DTD SVG 20010904//EN"
 "http://www.w3.org/TR/2001/REC-SVG-20010904/DTD/svg10.dtd">
<svg version="1.0" xmlns="http://www.w3.org/2000/svg"
 width="6667.000000pt" height="4167.000000pt" viewBox="0 0 6667.000000 4167.000000"
 preserveAspectRatio="xMidYMid meet">

<g transform="translate(0.000000,4167.000000) scale(0.100000,-0.100000)"
fill="#000000" stroke="none">
<path d="M29998 40004 l-3328 -1664 0 -3750 c0 -2063 2 -3750 5 -3750 3 0 379
187 835 415 l830 415 830 -415 830 -415 0 1668 0 1667 832 416 833 416 -833
417 -832 416 0 1608 0 1607 1668 834 1667 833 1668 -833 1667 -834 0 -2025 0
-2025 -410 -205 c-225 -113 -410 -207 -410 -210 0 -3 185 -97 410 -210 l410
-205 0 -2082 0 -2083 832 416 833 416 1667 -833 1668 -834 833 416 832 417
825 -414 c454 -227 828 -413 833 -413 4 -1 7 560 7 1247 l0 1247 1667 834
1668 833 1667 -833 1668 -834 0 -3337 0 -3338 -1660 -830 c-913 -456 -1667
-830 -1675 -830 -8 0 -384 185 -835 410 -451 226 -822 410 -825 410 -3 0 -5
-374 -5 -830 l0 -830 -1665 -832 -1665 -833 -835 418 -835 417 0 -835 0 -835
-1668 -834 -1667 -834 -825 414 c-454 227 -828 413 -832 413 -5 1 -8 -373 -8
-829 l0 -830 -1665 -832 -1665 -833 -1670 835 -1670 835 0 827 c0 456 -2 828
-5 828 -3 0 -374 -184 -825 -410 -451 -225 -827 -410 -835 -410 -8 0 -762 374
-1675 830 l-1660 830 0 2915 c0 1603 -3 2915 -7 2914 -5 0 -379 -186 -833
-413 l-825 -414 -1667 834 -1668 834 0 -1253 0 -1252 -825 -413 c-454 -226
-832 -412 -840 -412 -9 0 -762 374 -1675 830 l-1660 830 0 3338 0 3337 1668
834 1667 833 833 -416 832 -416 0 1245 c0 685 -3 1245 -7 1244 -5 0 -4506
-2249 -10003 -4998 l-9995 -4999 10422 -5211 10423 -5211 2 -3727 c4 -4114 -2
-3761 64 -4143 376 -2199 2389 -4199 5474 -5440 2476 -996 5445 -1423 8435
-1215 4550 318 8471 2132 10158 4700 524 798 809 1633 857 2510 6 124 10 1429
10 3755 l0 3565 8325 4163 c4579 2289 8327 4162 8330 4162 3 0 5 -1173 5
-2606 0 -1953 3 -2617 12 -2652 17 -67 79 -126 149 -142 39 -8 236 -10 709 -8
720 3 680 0 742 65 63 66 58 -195 58 3143 l0 3040 1252 626 1253 627 -10003
5001 -10002 5001 0 1250 0 1250 -1665 833 -1665 832 -1250 -625 -1250 -625
-3750 1875 c-2062 1031 -3753 1875 -3757 1874 -5 0 -1505 -749 -3335 -1665z"/>
<path d="M25000 28755 c0 -685 2 -1245 5 -1245 10 0 2487 1241 2484 1244 -2 2
-563 283 -1246 625 l-1243 621 0 -1245z"/>
<path d="M29583 28957 l-403 -202 1245 -623 1245 -622 0 -1665 c0 -916 2
-1665 5 -1665 3 0 379 187 835 415 l830 415 0 1243 0 1242 -1665 833 c-916
457 -1671 832 -1678 831 -6 0 -193 -91 -414 -202z"/>
<path d="M63109 16655 c-361 -51 -673 -203 -933 -454 -344 -333 -524 -788
-503 -1270 34 -771 566 -1396 1332 -1563 87 -19 131 -22 330 -22 202 0 243 2
335 22 668 145 1157 634 1302 1302 20 92 22 133 22 335 0 199 -3 243 -22 330
-148 677 -650 1173 -1318 1305 -141 28 -407 35 -545 15z"/>
</g>
</svg>
