<?xml version="1.0" standalone="no"?>
<!DOCTYPE svg PUBLIC "-//W3C//DTD SVG 20010904//EN"
  "http://www.w3.org/TR/2001/REC-SVG-20010904/DTD/svg10.dtd">
<svg version="1.0" xmlns="http://www.w3.org/2000/svg"
     width="6667.000000pt" height="4167.000000pt" viewBox="0 0 6667.000000 4167.000000"
     preserveAspectRatio="xMidYMid meet">

  <g transform="translate(0.000000,4167.000000) scale(0.100000,-0.100000)"
     fill="#000000" stroke="none">

    <path d="M25000 28755 c0 -685 2 -1245 5 -1245 10 0 2487 1241 2484 1244 -2 2
-563 283 -1246 625 l-1243 621 0 -1245z"/>
    <path d="M29583 28957 l-403 -202 1245 -623 1245 -622 0 -1665 c0 -916 2
-1665 5 -1665 3 0 379 187 835 415 l830 415 0 1243 0 1242 -1665 833 c-916
457 -1671 832 -1678 831 -6 0 -193 -91 -414 -202z"/>
    <path d="M63109 16655 c-361 -51 -673 -203 -933 -454 -344 -333 -524 -788
-503 -1270 34 -771 566 -1396 1332 -1563 87 -19 131 -22 330 -22 202 0 243 2
335 22 668 145 1157 634 1302 1302 20 92 22 133 22 335 0 199 -3 243 -22 330
-148 677 -650 1173 -1318 1305 -141 28 -407 35 -545 15z"/>
  </g>
</svg>
